<svg xmlns="http://www.w3.org/2000/svg" style="isolation:isolate" viewBox="0 0 190 91.905" height="92" width="190">
  <defs>
    <clipPath id="a">
      <path d="M0 0h190v91.905H0z"/>
    </clipPath>
  </defs>
  <g clip-path="url(#a)">
    <path d="M18.327 79.081l-.391-.001-.386-.001-.38-.002-.375-.002-.369-.003-.361-.004-.354-.004-.346-.005-.337-.005-.328-.006-.318-.006-.308-.007-.298-.007-.285-.008-.275-.009-.262-.009-.249-.009-.238-.01-.225-.011-.212-.012-.197-.012-.099-.007-.094-.007-.092-.007-.09-.008-.09-.009-.089-.009-.09-.01-.092-.012-.085-.012-.084-.013-.083-.014-.083-.015-.082-.017-.082-.017-.081-.018-.08-.019-.08-.02-.08-.021-.078-.021-.079-.023-.078-.023-.078-.024-.077-.026-.077-.025-.076-.027-.076-.027-.075-.029-.075-.029-.075-.029-.074-.031-.074-.031-.073-.032-.073-.033-.073-.033-.072-.034-.072-.035-.071-.035-.071-.036-.071-.037-.071-.038-.069-.038-.07-.039-.069-.039-.07-.041-.068-.04-.068-.042-.068-.042-.068-.043-.067-.044-.067-.044-.066-.045-.067-.045-.066-.047-.065-.047-.065-.047-.065-.048-.064-.049-.064-.05-.064-.05-.063-.051-.063-.051-.062-.053-.063-.053-.061-.053-.062-.054-.061-.055-.06-.056-.06-.056-.06-.057-.059-.058-.059-.058-.059-.059-.058-.06-.057-.06-.057-.061-.057-.062-.056-.062-.056-.064-.055-.064-.054-.064-.055-.066-.053-.066-.053-.067-.053-.067-.052-.068-.051-.069-.051-.07-.05-.071-.05-.071-.049-.072-.048-.072-.048-.074-.047-.074-.047-.075-.045-.076-.045-.076-.045-.078-.043-.078-.043-.079-.042-.079-.041-.08-.041-.082-.04-.081-.038-.083-.038-.084-.037-.084-.036-.085-.035-.085-.035-.087-.033-.087-.032-.088-.031-.089-.03-.089-.03-.09-.028-.091-.027-.092-.025-.092-.025-.093-.023-.094-.023-.094-.021-.095-.02-.096-.018-.096-.017-.097-.016-.098-.015-.098-.013-.098-.012-.1-.01-.099-.009-.1-.008-.101-.006-.101-.004-.102-.003-.102-.002-.102v-.089l.003-.501.002-.62.003-.741.001-.852.002-.954.001-1.045.002-2.326.001-2.578-.001-2.753V56.01l-.002-2.875-.003-5.514-.004-4.691-.008-7.609.003-.003h25.353v-18.98H0v-6.25h35.937v31.48h-25.35l.002 1.356.004 4.693.003 5.515.002 2.875v2.854l.001 2.754-.001 2.581-.002 2.329-.001 1.048-.002.956-.001.857-.003.747-.002.628-.003.488v.032l.001.009v.017l.001.009.001.009.001.01.001.009.001.009.002.01.001.009.002.01.002.01.002.011.002.01.003.011.003.011.003.011.003.011.003.012.004.011.004.012.004.013.004.012.005.013.005.013.005.013.005.013.006.014.006.014.007.014.006.014.007.015.008.014.007.015.008.015.008.015.009.016.009.015.009.016.01.016.01.016.01.016.01.016.011.016.011.016.012.017.011.016.013.017.012.017.013.016.013.017.013.017.013.016.014.017.015.017.014.017.015.016.015.017.015.017.015.016.016.016.016.017.016.016.016.016.017.016.017.016.017.016.017.016.017.016.017.015.018.015.018.015.017.015.018.015.018.014.018.015.019.014.018.013.018.014.019.014.018.013.018.012.018.013.019.013.018.012.018.011.018.012.018.011.018.011.018.011.018.01.017.01.018.01.017.009.017.009.017.009.016.008.017.008.016.008.016.008.015.007.015.006.015.007.014.006.014.006.013.005.013.005.013.005.012.004.012.004.011.004.01.003.01.003.009.003.009.003.008.002.007.002.013.003.009.002.008.001.006.001.017.002.028.003.037.003.045.004.053.005.059.004.062.004.153.01.169.009.189.009.207.009.223.008.239.009.253.008.267.007.28.007.292.006.304.007.314.005.325.005.333.005.343.004.35.003.358.003.364.002.371.002.376.001.38.001h.385l.388-.001.391-.001.393-.002.395-.003.395-.003.396-.004.396-.005.394-.005.393-.006.39-.006.388-.008.384-.008.379-.009.375-.009.369-.01.363-.011.356-.012.348-.013.34-.013.33-.014.321-.014.311-.016.301-.016.143-.008.142-.009.138-.009.135-.008.132-.009.128-.01.124-.009.121-.009.116-.01.112-.009.108-.01.103-.01.098-.01.094-.01.088-.009.082-.01.077-.01.07-.009.064-.009.057-.008.049-.008.009-.002.023-.011.022-.012.023-.012.023-.013.024-.014.024-.014.025-.015.024-.015.026-.016.026-.016.026-.018.026-.018.027-.018.027-.02.028-.02.028-.02.028-.022.029-.022.029-.023.029-.023.03-.025.029-.025.03-.025.031-.027.03-.027.031-.027.031-.029.032-.029.031-.03.032-.03.032-.032.032-.032.032-.032.033-.034.033-.034.032-.034.033-.036.033-.036.034-.036.033-.038.033-.038.034-.038.034-.04.033-.04.034-.04.034-.041.034-.042.034-.042.034-.043.034-.044.034-.044.034-.045.034-.045.034-.046.034-.046.034-.047.034-.047.034-.048.034-.049.034-.049.035-.049.034-.05.034-.05.031-.048.07-.107.068-.105.067-.106.067-.109.066-.11.066-.111.066-.113.066-.115.065-.115.064-.117.064-.118.064-.119.063-.12.062-.122.062-.122.061-.123.061-.123.06-.125.06-.125.059-.125.058-.126.058-.127.057-.127.056-.127.056-.127.054-.128.055-.127.053-.128.053-.127.052-.128.051-.127.051-.128.05-.126.049-.127.048-.126.047-.126.047-.125.046-.124.045-.124.045-.123.043-.122.043-.122.042-.12.041-.12.04-.118.04-.117.039-.117.038-.114.037-.114.036-.112.035-.109.069-.22.065-.211.062-.204.058-.196.055-.189.052-.181.048-.171.045-.163.041-.152.038-.143.034-.131.031-.121.028-.109.024-.096.02-.082.031-.132.017-.073.006-.023 6.096 1.378-.009.041-.026.111-.041.168-.026.109-.03.12-.034.133-.037.144-.041.157-.045.169-.048.179-.053.19-.056.2-.06.21-.064.219-.067.228-.072.237-.075.244-.079.25-.042.131-.042.13-.043.133-.044.133-.045.136-.046.136-.047.139-.049.14-.049.141-.05.142-.051.144-.052.144-.054.146-.054.148-.055.148-.057.149-.057.15-.059.151-.059.152-.061.152-.062.154-.063.154-.063.154-.065.155-.067.156-.067.157-.068.156-.07.157-.071.158-.071.158-.074.158-.074.158-.075.158-.077.159-.078.158-.079.159-.08.158-.082.159-.083.158-.084.158-.086.158-.087.158-.088.157-.09.157-.091.157-.093.156-.094.155-.096.155-.097.155-.099.154-.098.15-.053.079-.051.076-.052.076-.052.076-.053.075-.053.076-.053.075-.054.075-.054.074-.055.075-.055.074-.056.074-.056.074-.057.073-.057.073-.058.073-.058.073-.059.072-.059.072-.06.072-.06.071-.061.071-.061.071-.062.07-.063.07-.063.07-.063.069-.065.069-.065.069-.065.068-.066.068-.067.067-.067.067-.068.067-.069.066-.069.066-.07.065-.071.065-.072.064-.072.064-.073.063-.073.063-.075.062-.075.061-.076.061-.076.061-.078.06-.078.059-.079.059-.08.058-.081.057-.081.056-.082.056-.083.055-.084.055-.085.053-.086.053-.087.052-.087.051-.089.05-.089.05-.09.048-.091.047-.092.047-.093.045-.094.045-.094.043-.095.042-.097.041-.105.044-.08.031-.084.03-.08.027-.075.024-.071.022-.079.023-.121.032-.126.03-.121.026-.118.024-.117.022-.116.02-.117.019-.116.017-.119.017-.119.016-.122.015-.123.014-.126.014-.128.014-.13.013-.133.012-.135.012-.138.012-.14.012-.143.011-.145.011-.148.01-.151.011-.152.01-.156.009-.157.01-.162.009-.326.018-.335.016-.345.016-.352.015-.36.014-.367.013-.373.013-.379.011-.384.011-.389.01-.393.009-.397.008-.4.008-.403.006-.404.007-.406.005-.406.005-.406.004-.406.003-.405.003-.403.002-.401.001-.398.001h-.395z" fill-rule="evenodd"/>
    <path d="M53.677 20.18h35.855v6.25H53.677z"/>
    <path d="M43.125 52.372l-5.294-3.321.119-.19.117-.188.117-.188.117-.188.116-.189.116-.189.116-.189.115-.189.115-.189.115-.19.114-.189.114-.19.113-.19.114-.19.112-.191.113-.19.112-.191.112-.191.111-.191.111-.191.111-.192.11-.191.11-.192.11-.192.109-.192.109-.192.108-.192.109-.193.107-.192.108-.193.107-.193.106-.193.106-.193.106-.193.106-.193.105-.193.105-.194.104-.193.104-.194.104-.194.103-.194.103-.194.102-.194.102-.194.102-.194.101-.194.101-.194.101-.195.1-.194.099-.195.1-.194.099-.195.098-.194.098-.195.098-.195.097-.195.097-.194.097-.195.096-.195.096-.195.095-.195.095-.195.094-.195.094-.195.094-.195.093-.195.093-.195.093-.195.092-.195.092-.195.091-.195.091-.195.09-.195.09-.195.089-.195.089-.194.089-.195.088-.195.088-.195.088-.195.087-.194.086-.195.086-.195.086-.194.085-.195.085-.194.085-.195.084-.194.083-.194.083-.194.083-.194.082-.194.082-.194.081-.194.081-.194.081-.194.08-.193.079-.194.08-.193.078-.193.079-.193.077-.194.078-.192.077-.193.076-.193.076-.193.076-.192.075-.192.075-.192.074-.192.074-.192.073-.192.073-.192.072-.191.072-.191.071-.191.071-.191.071-.191.07-.191.07-.19.069-.191.068-.19.069-.19.067-.189.068-.19.066-.189.067-.189.065-.189.066-.189.065-.188.064-.189.064-.188.064-.188.063-.187.062-.188.062-.187.062-.187.061-.187.06-.186.06-.186.06-.186.059-.186.059-.185.058-.186.057-.185.058-.184.056-.185.056-.184.056-.184.055-.184.055-.183.054-.183.054-.183.053-.182.053-.182.052-.182.052-.182.051-.181.051-.181.05-.181.05-.18.049-.18.048-.18.049-.179.047-.179.047-.179.047-.178.046-.178.046-.178.045-.177.045-.177.044-.177.043-.176.043-.176.043-.175.042-.175.041-.175.041-.174.041-.174.04-.174.039-.173.039-.173.038-.172.038-.173.038-.171.036-.171.037-.171.035-.171.036-.169.034-.17.035-.169.033-.169.033-.168.033-.168.032-.167.031-.167.031-.166.031-.166.03-.166.029-.165.029-.165.028-.164.028-.163.027-.164.027-.162.026-.162.026-.162.025-.161.024-.161.024-.16.024-.16.023-.159.022-.159.022-.158.021-.158.021-.157.02-.156.019-.156.02-.156.018-.155.018-.154.017-.154.017-.153.017-.153.015-.152.016-.152.014-.151.015-.15.013-.15.013-.15.013-.148.012-.148.011-.148.011-.147.01-.146.01-.146.009-.145.009-.144.008-.144.007-.143.007-.142.007-.142.006-.142.005-.14.005-.14.004-.139.003-.139.004-.138.002-.137.002-.137.002-.136.001-.135v-.268l-.001-.133-.001-.139 6.249-.061.002.153.001.158v.32l-.002.16-.001.161-.003.161-.003.162-.003.162-.005.163-.005.163-.005.163-.006.164-.007.165-.008.165-.008.165-.008.166-.01.166-.01.166-.01.167-.012.168-.011.167-.013.169-.013.168-.013.169-.015.17-.014.17-.016.17-.016.171-.017.171-.017.172-.018.172-.018.172-.02.173-.019.173-.02.174-.021.174-.021.174-.023.175-.022.175-.023.175-.024.176-.024.177-.025.176-.025.177-.027.178-.026.178-.027.178-.028.179-.029.178-.028.18-.03.179-.03.18-.031.181-.03.181-.032.181-.033.181-.033.182-.033.182-.034.182-.034.183-.036.183-.035.184-.036.184-.037.184-.037.185-.038.184-.038.186-.039.185-.04.186-.04.186-.04.186-.041.187-.042.187-.042.188-.043.187-.043.188-.044.189-.044.188-.045.189-.045.189-.046.19-.047.189-.047.19-.047.191-.048.19-.049.191-.049.191-.05.192-.05.191-.05.192-.052.193-.051.192-.053.193-.052.193-.054.193-.053.194-.055.194-.054.194-.056.194-.056.194-.056.195-.057.195-.057.195-.058.196-.058.195-.059.196-.06.196-.06.197-.06.196-.061.197-.061.197-.062.197-.062.198-.063.197-.064.198-.064.198-.064.198-.065.198-.065.199-.066.199-.066.199-.067.199-.068.199-.067.2-.069.199-.068.2-.07.2-.069.2-.071.201-.07.2-.072.201-.071.2-.072.201-.073.201-.073.202-.074.201-.074.201-.074.202-.075.202-.076.202-.076.202-.076.202-.077.202-.077.203-.078.202-.079.203-.078.202-.08.203-.079.203-.08.203-.081.203-.081.204-.082.203-.082.203-.082.204-.083.204-.083.203-.084.204-.085.204-.084.204-.085.204-.086.204-.086.204-.087.204-.087.204-.087.204-.088.205-.088.204-.089.205-.089.204-.09.205-.09.204-.091.205-.091.204-.091.205-.092.205-.092.204-.093.205-.093.205-.094.204-.094.205-.094.205-.095.205-.096.205-.096.204-.096.205-.096.205-.097.205-.098.204-.098.205-.098.205-.099.204-.099.205-.1.205-.1.204-.1.205-.101.204-.102.205-.101.204-.102.205-.103.204-.103.204-.103.205-.104.204-.104.204-.105.204-.105.204-.105.204-.106.204-.107.204-.106.203-.107.204-.108.204-.108.203-.108.204-.109.203-.109.203-.109.203-.11.203-.111.203-.11.203-.111.202-.112.203-.112.202-.112.203-.113.202-.113.202-.113.202-.114.202-.115.201-.114.202-.115.201-.116.202-.115.201-.117.201-.116.2-.117.201-.118.201-.117.2-.119.2-.118.2-.119.2-.119.2-.12.199-.12.2-.121.199-.12.199-.121.198-.122.199-.122.198-.122.198-.123.198-.123.198-.123.198-.123.195z" fill-rule="evenodd"/>
    <path d="M88.419 87.853l-.204-.078-.209-.081-.208-.081-.208-.082-.207-.083-.206-.083-.205-.084-.205-.084-.204-.085-.204-.086-.203-.087-.202-.087-.201-.088-.201-.088-.2-.089-.2-.09-.198-.09-.199-.091-.197-.091-.197-.092-.196-.093-.196-.093-.194-.094-.195-.094-.193-.095-.193-.096-.192-.096-.192-.097-.191-.098-.19-.098-.189-.098-.189-.099-.189-.1-.187-.1-.187-.101-.186-.101-.186-.102-.185-.103-.184-.103-.184-.103-.183-.104-.183-.105-.181-.105-.181-.106-.181-.106-.18-.106-.179-.108-.178-.107-.178-.109-.178-.108-.176-.11-.176-.109-.175-.111-.175-.11-.174-.112-.174-.111-.172-.113-.172-.112-.172-.113-.171-.114-.17-.114-.17-.115-.169-.115-.168-.115-.168-.116-.167-.117-.166-.116-.166-.118-.165-.117-.165-.119-.164-.118-.163-.119-.163-.12-.162-.12-.161-.12-.161-.121-.16-.121-.16-.121-.159-.122-.158-.123-.158-.122-.157-.124-.157-.123-.156-.124-.155-.124-.155-.125-.154-.125-.153-.126-.153-.125-.152-.127-.152-.126-.151-.127-.151-.128-.15-.127-.149-.128-.148-.129-.148-.128-.148-.129-.147-.13-.146-.129-.146-.13-.145-.131-.144-.13-.144-.131-.144-.132-.142-.132-.142-.131-.142-.133-.141-.132-.14-.133-.14-.133-.139-.134-.139-.134-.138-.134-.137-.134-.137-.135-.137-.135-.135-.135-.136-.135-.134-.136-.134-.136-.134-.136-.133-.137-.132-.136-.132-.137-.131-.138-.13-.137-.13-.138-.13-.138-.129-.138-.128-.139-.128-.138-.127-.139-.127-.139-.126-.14-.126-.139-.125-.14-.124-.14-.124-.14-.124-.141-.122-.14-.123-.141-.121-.141-.122-.141-.12-.142-.12-.141-.12-.142-.119-.142-.118-.142-.118-.142-.118-.142-.117-.143-.116-.143-.116-.143-.115-.143-.114-.143-.115-.143-.114-.144-.113-.143-.112-.144-.112-.144-.112-.144-.111-.144-.11-.144-.11-.145-.11-.144-.109-.145-.108-.145-.108-.144-.108-.145-.107-.146-.106-.145-.106-.145-.105-.145-.105-.146-.105-.145-.103-.146-.104-.146-.103-.145-.102-.146-.102-.146-.101-.146-.101-.146-.101-.146-.099-.146-.1-.147-.099-.146-.098-.146-.098-.147-.098-.146-.096-.146-.097-.147-.096-.146-.095-.147-.095-.146-.095-.147-.094-.147-.094-.146-.092-.147-.093-.147-.092-.146-.092-.147-.091-.147-.09-.146-.091-.147-.089-.147-.09-.146-.089-.149-.176-.291-.174-.293-.173-.293-.17-.293-.169-.293-.167-.293-.166-.292-.163-.292-.162-.292-.16-.291-.158-.292-.156-.29-.155-.291-.153-.29-.151-.29-.149-.289-.148-.289-.146-.288-.144-.288-.143-.288-.141-.286-.14-.286-.137-.286-.136-.285-.135-.284-.133-.284-.131-.283-.129-.282-.128-.282-.127-.28-.125-.28-.123-.279-.122-.278-.12-.278-.118-.276-.118-.276-.115-.274-.114-.274-.113-.273-.111-.271-.11-.271-.108-.269-.106-.269-.106-.267-.103-.266-.103-.265-.101-.264-.099-.263-.098-.261-.097-.261-.095-.258-.094-.258-.093-.256-.091-.255-.09-.254-.089-.252-.087-.25-.086-.25-.084-.248-.083-.246-.082-.245-.081-.243-.079-.242-.079-.24-.076-.238-.076-.237-.074-.235-.074-.234-.071-.232-.071-.23-.07-.228-.068-.227-.067-.224-.066-.223-.065-.221-.063-.22-.063-.217-.061-.215-.06-.214-.059-.211-.058-.21-.057-.207-.055-.205-.055-.204-.054-.201-.052-.199-.051-.197-.051-.195-.049-.192-.048-.191-.048-.188-.046-.186-.045-.184-.044-.181-.043-.179-.043-.177-.041-.174-.04-.173-.078-.335-.074-.327-.07-.316-.066-.306-.063-.296-.06-.285-.056-.274-.053-.264-.049-.252-.047-.24-.043-.229-.04-.217-.037-.205-.034-.193-.031-.181-.029-.167-.025-.156-.023-.142-.021-.131-.033-.215-.024-.163-.015-.105-.005-.038 6.194-.835.002.02.01.068.018.123.028.18.016.105.02.121.022.134.025.146.027.158.031.171.033.182.035.194.039.206.042.217.045.228.048.239.051.249.054.261.058.27.061.281.064.291.068.3.072.312.037.157.038.161.039.163.04.165.041.168.042.17.042.172.044.174.045.176.045.179.047.18.048.183.048.185.05.186.051.189.051.191.053.192.054.195.055.196.056.199.057.2.058.202.059.204.06.205.061.208.063.209.063.21.065.213.066.214.066.215.068.218.07.219.07.22.072.222.072.223.074.225.075.227.076.228.078.229.079.23.079.232.082.234.082.234.084.236.084.237.087.239.087.239.089.241.09.242.091.243.092.244.094.246.095.246.097.247.097.248.1.25.1.25.102.251.103.253.104.253.106.254.108.254.108.256.11.256.112.258.113.257.114.259.115.259.118.26.118.261.12.261.122.262.122.263.125.263.126.263.127.264.129.265.13.265.132.265.133.266.135.266.136.266.138.267.139.267.141.268.142.267.145.268.146.269.147.268.148.268.151.269.152.269.153.269.155.268.157.269.158.269.161.269.162.271.081.133.081.134.083.135.082.134.083.134.084.135.084.134.084.134.085.134.085.135.086.134.086.134.086.134.087.134.087.134.088.134.087.134.089.133.089.134.09.134.089.133.091.134.09.133.092.133.091.134.092.133.092.133.093.133.094.133.093.133.094.132.095.133.095.132.095.133.096.132.097.132.096.132.098.132.097.132.098.131.099.132.099.131.099.131.1.131.1.131.101.131.101.131.102.13.102.131.103.13.103.13.103.13.104.13.105.129.104.129.106.13.106.129.106.129.106.128.108.129.107.128.108.128.109.128.109.128.109.127.11.128.111.127.11.127.112.126.112.127.112.126.113.126.113.126.114.126.114.125.114.125.115.125.116.125.116.124.117.124.117.124.117.124.118.123.119.124.119.123.119.122.12.123.12.122.121.122.122.122.122.121.122.121.123.121.123.12.124.121.124.12.125.119.126.12.125.119.127.119.127.118.127.118.128.118.128.118.129.117.129.117.13.117.13.116.131.116.132.116.132.116.132.115.133.114.133.115.134.114.135.114.135.113.135.113.136.113.137.112.137.112.137.112.138.111.139.111.139.111.14.11.14.11.14.109.142.109.141.109.143.108.142.108.144.108.144.107.144.107.145.106.145.106.146.106.147.105.147.105.148.104.148.104.149.104.149.103.15.103.15.102.151.102.152.102.152.101.152.101.153.1.154.1.154.099.155.099.156.099.155.098.157.097.157.097.158.097.158.096.159.096.159.096.16.094.16.095.161.094.162.093.162.093.163.093.163.092.164.091.165.092.165.09.165.09.167.09.166.089.168.089.168.088.168.087.17.088.169.086.171.086.171.086.171.085.172.085.173.084.174.083.173.083.175.083.175.082.176.081.176.081.177.08.178.08.178.079.179.079.18.078.18.078.18.077.182.076.182.076.182.076.183.074.184.075.185.073.185.073.185.073.187.072.192.073-2.227 5.84z" fill-rule="evenodd"/>
    <path d="M37.264 91.577l-3.229-5.351.279-.168.274-.167.274-.167.272-.166.271-.167.27-.168.268-.167.268-.167.266-.168.265-.167.264-.168.263-.168.261-.168.261-.168.259-.169.258-.168.257-.168.256-.169.254-.169.254-.169.252-.169.251-.169.25-.169.249-.169.248-.17.247-.169.245-.17.244-.17.244-.169.242-.17.241-.17.24-.17.239-.171.237-.17.237-.17.235-.171.235-.17.233-.171.232-.17.231-.171.23-.171.229-.171.228-.171.227-.171.225-.171.225-.171.223-.171.222-.172.222-.171.22-.171.219-.172.218-.171.217-.172.216-.171.215-.172.214-.172.213-.171.212-.172.211-.172.209-.172.209-.172.207-.171.207-.172.206-.172.204-.172.204-.172.202-.172.202-.172.2-.172.199-.172.199-.172.197-.173.197-.172.195-.172.194-.172.194-.172.192-.172.192-.172.19-.172.189-.173.189-.172.187-.172.187-.172.185-.172.185-.172.183-.172.183-.172.181-.172.181-.172.18-.172.178-.172.178-.172.177-.172.176-.172.175-.172.174-.172.173-.171.172-.172.171-.172.17-.171.169-.172.168-.172.168-.171.166-.172.166-.171.165-.171.163-.172.163-.171.162-.171.161-.171.16-.171.159-.171.158-.171.158-.171.156-.171.156-.171.154-.171.154-.17.153-.171.152-.17.151-.17.15-.171.15-.17.148-.17.148-.17.147-.17.146-.17.145-.17.144-.169.144-.17.142-.169.142-.17.141-.169.139-.169.139-.169.139-.169.137-.169.137-.169.135-.168.136-.169.134-.168.132-.168.133-.168.132-.168.131-.168.13-.168.129-.168.128-.167.128-.168.127-.167.126-.167.125-.167.124-.167.124-.166.123-.167.122-.166.121-.166.12-.167.12-.166.119-.165.118-.166.117-.165.117-.166.115-.165.116-.165.114-.165.114-.164.112-.165.113-.164.111-.164.11-.164.11-.164.109-.164.108-.163.108-.164.107-.163.106-.163.105-.162.105-.163.104-.162.103-.163.102-.162.102-.161.101-.162.1-.161.1-.161.099-.161.098-.161.097-.161.097-.16.096-.16.096-.16.094-.16.094-.16.094-.159.092-.159.092-.159.092-.159.09-.158.09-.158.089-.158.089-.158.088-.158.087-.157.087-.157.086-.157.085-.156.084-.157.084-.156.084-.156.082-.155.082-.156.082-.155.081-.155.08-.154.079-.155.079-.154.078-.154.078-.153.077-.154.076-.153.076-.153.075-.152.075-.152.073-.152.074-.152.072-.152.073-.151.071-.151.071-.15.07-.151.07-.15.069-.149.069-.15.067-.149.068-.149.067-.149.066-.148.065-.148.065-.148.065-.147.064-.147.063-.147.063-.147.062-.146.062-.146.061-.145.06-.146.06-.145.06-.144.059-.145.058-.144.058-.143.057-.144.057-.143.056-.142.056-.143.055-.142.055-.142.054-.141.053-.141.054-.141.052-.14.052-.14.052-.14.05-.138.101-.279.099-.276.096-.275.095-.274.092-.272.091-.27.089-.269.087-.268.085-.266.083-.264.082-.263.079-.262.078-.26.076-.258.074-.257.073-.255.071-.253.069-.252.067-.25.066-.249.064-.247.063-.245.061-.243.059-.242.058-.24.057-.238.055-.236.053-.235.052-.232.05-.231.049-.229.048-.228.046-.225.045-.224.043-.221.042-.22.041-.218.04-.215.038-.214.037-.212.036-.21.034-.208.033-.206.033-.204.031-.201.029-.2.029-.198.028-.195.026-.194.026-.191.024-.189.024-.187.022-.185.021-.182.021-.181.019-.178.019-.176.018-.173.016-.172.016-.169.015-.167.014-.164.014-.162.013-.16.011-.158.012-.155.01-.152.01-.151.009-.147.008-.146.007-.143.007-.14.007-.138.006-.136.005-.133.005-.13.004-.128.003-.125.003-.123.003-.12.002-.117.002-.115.001-.112.001-.11.001-.107v-.203l-.001-.197-.003-.184-.003-.172-.004-.161-.005-.15-.005-.138-.006-.127-.005-.115-.006-.102-.006-.091-.005-.079-.005-.066-.004-.054-.004-.038-.005-.051-.001-.012 6.217-.644.004.042.01.107.007.08.007.09.008.102.008.115.008.128.008.14.007.153.008.165.006.177.006.188.006.201.004.213.002.224.002.232v.25l-.001.127-.001.131-.001.133-.003.136-.002.139-.003.141-.004.144-.004.147-.005.149-.005.152-.007.155-.006.157-.008.161-.008.162-.009.165-.009.168-.011.17-.011.173-.012.176-.012.177-.014.181-.014.183-.016.185-.016.188-.017.19-.018.192-.019.195-.02.197-.021.2-.023.202-.023.204-.024.207-.025.209-.027.211-.027.214-.029.216-.03.217-.031.221-.032.222-.034.225-.035.226-.036.229-.037.231-.039.233-.04.236-.041.237-.043.239-.044.242-.046.243-.047.246-.049.247-.05.25-.051.251-.053.254-.055.255-.056.257-.058.259-.059.261-.061.263-.063.265-.064.267-.066.268-.068.271-.069.272-.072.274-.073.275-.075.278-.076.279-.079.28-.08.283-.082.284-.084.286-.087.287-.088.289-.089.291-.092.293-.094.293-.096.296-.098.297-.101.298-.102.3-.104.302-.106.303-.109.304-.11.304-.057.156-.057.154-.057.154-.058.154-.058.155-.059.155-.06.156-.06.156-.061.156-.061.157-.062.157-.062.157-.063.158-.063.157-.065.158-.064.159-.066.159-.065.159-.067.16-.067.16-.068.16-.068.16-.069.161-.069.161-.07.162-.071.161-.072.162-.072.163-.072.162-.073.163-.074.163-.075.164-.075.164-.075.164-.077.164-.077.165-.077.165-.078.165-.079.165-.08.166-.08.166-.081.166-.081.167-.083.167-.082.167-.084.167-.084.168-.085.168-.085.168-.086.168-.087.169-.088.169-.088.169-.089.169-.089.17-.091.17-.09.17-.092.17-.092.171-.093.17-.094.171-.095.172-.095.171-.095.172-.097.172-.097.172-.098.172-.099.173-.099.173-.1.173-.101.173-.102.173-.102.174-.103.174-.104.174-.104.174-.106.174-.106.175-.106.175-.108.175-.108.175-.109.175-.11.176-.11.175-.111.176-.112.176-.113.177-.114.176-.114.176-.115.177-.116.177-.117.177-.117.177-.118.178-.119.177-.12.178-.12.178-.122.178-.122.178-.123.178-.123.179-.125.178-.125.179-.126.179-.127.179-.128.179-.129.18-.129.179-.13.179-.131.18-.132.18-.133.18-.133.18-.134.18-.136.18-.136.181-.136.18-.138.181-.139.18-.139.181-.14.181-.141.181-.142.181-.143.181-.143.181-.145.182-.145.181-.146.182-.147.181-.148.182-.149.182-.15.182-.15.182-.152.182-.152.182-.153.182-.155.182-.155.182-.155.183-.157.182-.158.183-.158.182-.159.183-.161.183-.161.182-.162.183-.163.183-.164.183-.165.182-.166.183-.166.183-.168.183-.169.183-.169.183-.17.184-.172.183-.173.183-.172.183-.174.183-.176.183-.176.184-.177.183-.177.183-.18.184-.179.183-.181.183-.182.183-.182.184-.184.183-.185.183-.185.184-.187.183-.187.183-.189.183-.189.184-.191.183-.191.183-.192.183-.194.184-.194.183-.196.183-.196.183-.197.183-.199.183-.199.183-.2.183-.202.183-.202.183-.203.183-.205.183-.205.183-.207.183-.207.182-.209.183-.209.183-.211.182-.211.183-.213.182-.213.183-.215.182-.215.182-.217.183-.218.182-.219.182-.22.182-.22.182-.222.182-.223.181-.224.182-.226.182-.226.181-.227.182-.228.181-.23.181-.23.181-.232.181-.232.181-.234.181-.235.181-.235.181-.237.18-.238.181-.239.18-.24.18-.242.181-.242.18-.244.18-.244.179-.246.18-.247.18-.247.179-.249.179-.251.18-.251.179-.252.179-.254.178-.254.179-.256.178-.257.179-.258.178-.259.178-.26.178-.262.178-.262.178-.264.177-.265.177-.266.178-.267.177-.268.176-.269.177-.271.177-.272.176-.272.176-.274.176-.276.176-.276.176-.278.175-.278.176-.28.175-.281.175-.283.175-.283.174-.285.175-.285.174-.287.174-.285.172z" fill-rule="evenodd"/>
    <g>
      <path d="M105.781 10.088h77.416v6.25h-77.416zM112.025 22.558h64.249v6.25h-64.249zM100.353 35.318H190v6.25h-89.647zM101.789 52.978h85.415v6.25h-85.415z"/>
      <path d="M115.887 91.905v-27.52h56.956v27.52h-6.25v-21.27h-44.456v21.27h-6.25z" fill-rule="evenodd"/>
      <path d="M119.012 82.078h49.195v6.25h-49.195z"/>
      <path d="M126.461 57.689l-6.178-10.488 5.385-3.172 6.178 10.488-5.385 3.172zM162.39 57.463l-5.627-2.72 5.071-10.488 5.627 2.72-5.071 10.488zM130.302 15.118L121.605 3.81 126.56 0l8.696 11.308-4.954 3.81zM157.099 14.957l-5.186-3.488L159.519.161l5.186 3.488-7.606 11.308z" fill-rule="evenodd"/>
      <path d="M141.24 13.213h6.25v42.89h-6.25z"/>
    </g>
  </g>
</svg>
