---
to: <%= h.src() %>/<%= h.changeCase.lower(name) %>/logo.svg
---
<svg xmlns="http://www.w3.org/2000/svg" width="190px" height="141.26px" viewBox="0 0 190 141.26">
	<path d="M18.33,79.08l-0.39,0l-0.39,0l-0.38,0l-0.38,0l-0.37,0l-0.36,0l-0.35,0l-0.35,0l-0.34,0l-0.33-0.01l-0.32-0.01l-0.31-0.01
	l-0.3-0.01l-0.28-0.01l-0.27-0.01L12.95,79l-0.25-0.01l-0.24-0.01l-0.23-0.01l-0.21-0.01l-0.2-0.01l-0.1-0.01l-0.09-0.01l-0.09-0.01
	l-0.09-0.01l-0.09-0.01l-0.09-0.01l-0.09-0.01l-0.09-0.01l-0.09-0.01l-0.08-0.01l-0.08-0.01l-0.08-0.01l-0.08-0.02l-0.08-0.02
	l-0.08-0.02l-0.08-0.02l-0.08-0.02l-0.08-0.02l-0.08-0.02l-0.08-0.02l-0.08-0.02l-0.08-0.02L9.89,78.6l-0.08-0.03l-0.08-0.03
	l-0.08-0.03l-0.07-0.03l-0.07-0.03l-0.07-0.03L9.36,78.4l-0.07-0.03l-0.07-0.03L9.14,78.3l-0.07-0.03l-0.07-0.03L8.92,78.2
	l-0.07-0.04l-0.07-0.04l-0.07-0.04l-0.07-0.04l-0.07-0.04L8.5,77.98l-0.07-0.04L8.36,77.9l-0.07-0.04l-0.07-0.04l-0.07-0.04
	l-0.07-0.04l-0.07-0.04l-0.07-0.04L7.89,77.6l-0.07-0.04l-0.07-0.05l-0.07-0.05l-0.07-0.05l-0.07-0.05L7.5,77.31l-0.06-0.05
	l-0.06-0.05l-0.06-0.05l-0.06-0.05l-0.06-0.05l-0.06-0.05l-0.06-0.05L6.99,76.9l-0.06-0.06l-0.06-0.06l-0.06-0.06l-0.06-0.06
	l-0.06-0.06l-0.06-0.06L6.58,76.5l-0.06-0.06l-0.06-0.06L6.4,76.32l-0.06-0.06L6.29,76.2l-0.06-0.06l-0.05-0.06L6.13,76l-0.05-0.07
	l-0.05-0.07L5.97,75.8l-0.05-0.07l-0.05-0.07L5.81,75.6l-0.05-0.07l-0.05-0.07l-0.05-0.07l-0.05-0.07l-0.05-0.07l-0.05-0.07
	L5.47,75.1l-0.05-0.07l-0.05-0.08l-0.05-0.08l-0.05-0.08l-0.04-0.08L5.2,74.63l-0.04-0.08l-0.04-0.08l-0.04-0.08l-0.04-0.08L5,74.23
	l-0.04-0.08l-0.04-0.08l-0.04-0.08l-0.03-0.08L4.82,73.8l-0.03-0.09l-0.03-0.09l-0.03-0.09l-0.03-0.09l-0.03-0.09l-0.03-0.09
	L4.6,73.18l-0.03-0.09l-0.03-0.09L4.53,72.9l-0.02-0.09l-0.02-0.1l-0.02-0.1l-0.02-0.1l-0.02-0.1l-0.02-0.1l-0.01-0.1l-0.01-0.1
	l-0.01-0.1l-0.01-0.1l-0.01-0.1l-0.01-0.1l-0.01-0.1l0-0.1l0-0.1l0-0.1v-0.09l0-0.5l0-0.62l0-0.74l0-0.85l0-0.95l0-1.04l0-2.33
	l0-2.58l0-2.75v-2.85l0-2.88l0-5.51l0-4.69l-0.01-7.61l0,0h25.35V16.34H0v-6.25h35.94v31.48H10.59l0,1.36l0,4.69l0,5.51l0,2.88v2.85
	l0,2.75l0,2.58l0,2.33l0,1.05l0,0.96l0,0.86l0,0.75l0,0.63l0,0.49v0.03l0,0.01v0.02l0,0.01l0,0.01l0,0.01l0,0.01l0,0.01l0,0.01
	l0,0.01l0,0.01l0,0.01l0,0.01l0,0.01l0,0.01l0,0.01l0,0.01l0,0.01l0,0.01l0,0.01l0,0.01l0,0.01l0,0.01l0.01,0.01l0.01,0.01
	l0.01,0.01l0.01,0.01l0.01,0.01l0.01,0.01l0.01,0.01l0.01,0.01l0.01,0.01l0.01,0.01l0.01,0.01l0.01,0.01l0.01,0.01l0.01,0.02
	l0.01,0.01l0.01,0.02l0.01,0.02l0.01,0.02l0.01,0.02l0.01,0.02l0.01,0.02l0.01,0.02l0.01,0.02l0.01,0.02l0.01,0.02l0.01,0.02
	l0.01,0.02l0.01,0.02l0.01,0.02l0.01,0.02l0.01,0.02l0.02,0.02l0.01,0.02l0.02,0.02l0.02,0.02l0.02,0.02l0.02,0.02l0.02,0.02
	l0.02,0.02l0.02,0.02l0.02,0.02l0.02,0.02l0.02,0.02l0.02,0.02l0.02,0.02l0.02,0.02l0.02,0.01l0.02,0.01l0.02,0.01l0.02,0.01
	l0.02,0.01l0.02,0.01l0.02,0.01l0.02,0.01l0.02,0.01l0.02,0.01l0.02,0.01l0.02,0.01l0.02,0.01l0.02,0.01l0.02,0.01l0.02,0.01
	l0.02,0.01l0.02,0.01l0.02,0.01l0.02,0.01l0.02,0.01l0.02,0.01l0.02,0.01l0.02,0.01l0.02,0.01l0.02,0.01l0.02,0.01l0.02,0.01
	l0.02,0.01l0.02,0.01l0.02,0.01l0.02,0.01l0.02,0.01l0.02,0.01l0.01,0.01l0.01,0.01l0.01,0l0.01,0l0.01,0l0.01,0l0.01,0l0.01,0
	l0.01,0l0.01,0l0.01,0l0.01,0l0.01,0l0.01,0l0.01,0l0.01,0l0.01,0l0.01,0l0.02,0l0.03,0l0.04,0l0.05,0l0.05,0l0.06,0l0.06,0
	l0.15,0.01l0.17,0.01l0.19,0.01l0.21,0.01l0.22,0.01l0.24,0.01l0.25,0.01l0.27,0.01l0.28,0.01l0.29,0.01l0.3,0.01l0.31,0l0.32,0
	l0.33,0l0.34,0l0.35,0l0.36,0l0.36,0l0.37,0l0.38,0l0.38,0h0.39l0.39,0l0.39,0l0.39,0l0.4,0l0.4,0l0.4,0l0.4,0l0.39,0l0.39-0.01
	l0.39-0.01l0.39-0.01l0.38-0.01l0.38-0.01l0.38-0.01l0.37-0.01l0.36-0.01l0.36-0.01l0.35-0.01l0.34-0.01l0.33-0.01l0.32-0.01
	l0.31-0.02l0.3-0.02l0.14-0.01l0.14-0.01l0.14-0.01l0.14-0.01l0.13-0.01l0.13-0.01l0.12-0.01l0.12-0.01l0.12-0.01l0.11-0.01
	l0.11-0.01l0.1-0.01l0.1-0.01l0.09-0.01l0.09-0.01l0.08-0.01l0.08-0.01l0.07-0.01l0.06-0.01l0.06-0.01l0.05-0.01l0.01,0l0.02-0.01
	l0.02-0.01l0.02-0.01l0.02-0.01l0.02-0.01l0.02-0.01l0.02-0.01l0.02-0.01l0.03-0.02l0.03-0.02l0.03-0.02l0.03-0.02l0.03-0.02
	l0.03-0.02l0.03-0.02l0.03-0.02l0.03-0.02l0.03-0.02l0.03-0.02l0.03-0.02l0.03-0.03l0.03-0.03l0.03-0.03L30.04,72l0.03-0.03
	l0.03-0.03l0.03-0.03l0.03-0.03l0.03-0.03l0.03-0.03l0.03-0.03l0.03-0.03l0.03-0.03l0.03-0.03l0.03-0.03l0.03-0.03l0.03-0.04
	l0.03-0.04l0.03-0.04l0.03-0.04l0.03-0.04l0.03-0.04l0.03-0.04l0.03-0.04l0.03-0.04l0.03-0.04l0.03-0.04l0.03-0.04l0.03-0.04
	l0.03-0.04l0.03-0.04l0.03-0.04l0.03-0.04l0.03-0.05l0.03-0.05l0.03-0.05l0.03-0.05l0.03-0.05l0.03-0.05l0.03-0.05l0.03-0.05
	l0.03-0.05l0.03-0.05l0.03-0.05l0.07-0.11l0.07-0.11l0.07-0.11l0.07-0.11l0.07-0.11l0.07-0.11l0.07-0.11l0.07-0.11l0.07-0.11
	l0.06-0.12l0.06-0.12l0.06-0.12l0.06-0.12l0.06-0.12l0.06-0.12l0.06-0.12l0.06-0.12l0.06-0.12l0.06-0.12l0.06-0.12l0.06-0.13
	l0.06-0.13l0.06-0.13l0.06-0.13l0.06-0.13l0.05-0.13l0.06-0.13l0.05-0.13l0.05-0.13l0.05-0.13l0.05-0.13l0.05-0.13l0.05-0.13
	l0.05-0.13l0.05-0.13l0.05-0.13l0.05-0.12l0.05-0.12l0.04-0.12l0.04-0.12l0.04-0.12l0.04-0.12l0.04-0.12l0.04-0.12l0.04-0.12
	l0.04-0.12l0.04-0.12L34,64.61l0.04-0.11l0.04-0.11l0.03-0.11l0.07-0.22l0.06-0.21l0.06-0.2l0.06-0.2l0.06-0.19l0.05-0.18l0.05-0.17
	l0.04-0.16l0.04-0.15l0.04-0.14l0.03-0.13l0.03-0.12l0.03-0.11l0.02-0.1l0.02-0.08l0.03-0.13l0.02-0.07l0.01-0.02l6.1,1.38
	l-0.01,0.04l-0.03,0.11l-0.04,0.17l-0.03,0.11L40.8,63.6l-0.03,0.13l-0.04,0.14l-0.04,0.16l-0.04,0.17l-0.05,0.18l-0.05,0.19
	l-0.06,0.2l-0.06,0.21l-0.06,0.22l-0.07,0.23l-0.07,0.24l-0.08,0.24l-0.08,0.25l-0.04,0.13l-0.04,0.13l-0.04,0.13l-0.04,0.13
	l-0.04,0.14l-0.05,0.14l-0.05,0.14l-0.05,0.14l-0.05,0.14l-0.05,0.14l-0.05,0.14l-0.05,0.14l-0.05,0.15l-0.05,0.15l-0.06,0.15
	l-0.06,0.15l-0.06,0.15l-0.06,0.15l-0.06,0.15l-0.06,0.15l-0.06,0.15l-0.06,0.15l-0.06,0.15l-0.06,0.15l-0.07,0.16l-0.07,0.16
	l-0.07,0.16l-0.07,0.16l-0.07,0.16l-0.07,0.16l-0.07,0.16l-0.07,0.16l-0.08,0.16l-0.08,0.16l-0.08,0.16l-0.08,0.16l-0.08,0.16
	l-0.08,0.16l-0.08,0.16l-0.08,0.16l-0.09,0.16l-0.09,0.16l-0.09,0.16l-0.09,0.16l-0.09,0.16l-0.09,0.16l-0.09,0.15l-0.1,0.15
	l-0.1,0.15l-0.1,0.15l-0.1,0.15l-0.05,0.08l-0.05,0.08l-0.05,0.08l-0.05,0.08l-0.05,0.07l-0.05,0.08l-0.05,0.07l-0.05,0.07
	l-0.05,0.07l-0.06,0.07l-0.06,0.07l-0.06,0.07l-0.06,0.07l-0.06,0.07l-0.06,0.07l-0.06,0.07l-0.06,0.07l-0.06,0.07l-0.06,0.07
	l-0.06,0.07l-0.06,0.07l-0.06,0.07l-0.06,0.07l-0.06,0.07l-0.06,0.07l-0.06,0.07l-0.06,0.07l-0.06,0.07l-0.06,0.07l-0.06,0.07
	l-0.07,0.07l-0.07,0.07l-0.07,0.07l-0.07,0.07l-0.07,0.07l-0.07,0.07l-0.07,0.07l-0.07,0.07l-0.07,0.06l-0.07,0.06l-0.07,0.06
	l-0.07,0.06l-0.08,0.06l-0.08,0.06l-0.08,0.06l-0.08,0.06l-0.08,0.06l-0.08,0.06l-0.08,0.06l-0.08,0.06l-0.08,0.06l-0.08,0.06
	l-0.08,0.06l-0.08,0.06l-0.08,0.06l-0.08,0.05l-0.09,0.05l-0.09,0.05l-0.09,0.05l-0.09,0.05l-0.09,0.05l-0.09,0.05L32.28,78
	l-0.09,0.05l-0.09,0.04L32,78.13l-0.09,0.04l-0.09,0.04l-0.1,0.04l-0.1,0.04l-0.08,0.03l-0.08,0.03l-0.08,0.03l-0.08,0.02
	l-0.07,0.02l-0.08,0.02l-0.12,0.03l-0.13,0.03l-0.12,0.03l-0.12,0.02l-0.12,0.02l-0.12,0.02l-0.12,0.02l-0.12,0.02l-0.12,0.02
	l-0.12,0.02l-0.12,0.01l-0.12,0.01l-0.13,0.01l-0.13,0.01l-0.13,0.01l-0.13,0.01l-0.14,0.01l-0.14,0.01l-0.14,0.01l-0.14,0.01
	l-0.15,0.01l-0.15,0.01l-0.15,0.01l-0.15,0.01l-0.16,0.01l-0.16,0.01l-0.16,0.01l-0.33,0.02l-0.33,0.02l-0.34,0.02l-0.35,0.01
	l-0.36,0.01l-0.37,0.01l-0.37,0.01L24.72,79l-0.38,0.01l-0.39,0.01l-0.39,0.01l-0.4,0.01l-0.4,0.01l-0.4,0.01l-0.4,0.01l-0.41,0
	l-0.41,0l-0.41,0l-0.41,0l-0.41,0l-0.4,0l-0.4,0l-0.4,0L18.33,79.08L18.33,79.08z M53.68,20.18h35.85v6.25H53.68V20.18z
	 M43.12,52.37l-5.29-3.32l0.12-0.19l0.12-0.19l0.12-0.19l0.12-0.19l0.12-0.19l0.12-0.19l0.12-0.19l0.12-0.19l0.12-0.19l0.12-0.19
	l0.11-0.19l0.11-0.19l0.11-0.19l0.11-0.19l0.11-0.19l0.11-0.19l0.11-0.19l0.11-0.19l0.11-0.19l0.11-0.19l0.11-0.19l0.11-0.19
	l0.11-0.19l0.11-0.19l0.11-0.19l0.11-0.19l0.11-0.19L41,43.72l0.11-0.19l0.11-0.19l0.11-0.19l0.11-0.19l0.11-0.19l0.11-0.19
	l0.11-0.19l0.1-0.19l0.1-0.19l0.1-0.19l0.1-0.19l0.1-0.19l0.1-0.19l0.1-0.19l0.1-0.19l0.1-0.19l0.1-0.19l0.1-0.19l0.1-0.19l0.1-0.19
	l0.1-0.19l0.1-0.19l0.1-0.19l0.1-0.19l0.1-0.19l0.1-0.19l0.1-0.19l0.1-0.19l0.1-0.19l0.1-0.19l0.1-0.19l0.1-0.19l0.1-0.19l0.1-0.19
	l0.09-0.19l0.09-0.19l0.09-0.19l0.09-0.19l0.09-0.19l0.09-0.19l0.09-0.19l0.09-0.19l0.09-0.19l0.09-0.19l0.09-0.19l0.09-0.19
	l0.09-0.19l0.09-0.19l0.09-0.19l0.09-0.19l0.09-0.19l0.09-0.19l0.09-0.19l0.09-0.19l0.09-0.19l0.09-0.19l0.08-0.19l0.08-0.19
	l0.08-0.19l0.08-0.19l0.08-0.19l0.08-0.19l0.08-0.19l0.08-0.19l0.08-0.19l0.08-0.19l0.08-0.19l0.08-0.19l0.08-0.19l0.08-0.19
	l0.08-0.19l0.08-0.19l0.08-0.19l0.08-0.19l0.08-0.19l0.08-0.19l0.08-0.19l0.08-0.19l0.08-0.19l0.08-0.19L48.43,28l0.07-0.19
	l0.07-0.19l0.07-0.19l0.07-0.19l0.07-0.19l0.07-0.19l0.07-0.19l0.07-0.19l0.07-0.19l0.07-0.19l0.07-0.19l0.07-0.19l0.07-0.19
	l0.07-0.19l0.07-0.19l0.07-0.19l0.07-0.19l0.07-0.19l0.06-0.19l0.07-0.19L49.89,24l0.06-0.19l0.06-0.19l0.06-0.19l0.06-0.19
	l0.06-0.19l0.06-0.19l0.06-0.19l0.06-0.19l0.06-0.19l0.06-0.19l0.06-0.19l0.06-0.19l0.06-0.18l0.06-0.19l0.06-0.18l0.06-0.18
	l0.06-0.18l0.06-0.18l0.06-0.18l0.06-0.18l0.06-0.18l0.05-0.18l0.05-0.18l0.05-0.18l0.05-0.18l0.05-0.18L51.46,19l0.05-0.18
	l0.05-0.18l0.05-0.18l0.05-0.18l0.05-0.18l0.05-0.18l0.05-0.18l0.05-0.18l0.05-0.18l0.05-0.18l0.05-0.18l0.05-0.18l0.04-0.18
	l0.04-0.18l0.04-0.18l0.04-0.18l0.04-0.18l0.04-0.18l0.04-0.18l0.04-0.18l0.04-0.17l0.04-0.17l0.04-0.17l0.04-0.17l0.04-0.17
	l0.04-0.17l0.04-0.17l0.04-0.17l0.04-0.17l0.04-0.17l0.03-0.17l0.04-0.17l0.03-0.17l0.03-0.17l0.03-0.17l0.03-0.17l0.03-0.17
	l0.03-0.17l0.03-0.17l0.03-0.17l0.03-0.17l0.03-0.17l0.03-0.16l0.03-0.16l0.03-0.16l0.03-0.16l0.03-0.16l0.03-0.16l0.03-0.16
	l0.03-0.16l0.03-0.16l0.02-0.16l0.02-0.16l0.02-0.16l0.02-0.16l0.02-0.16l0.02-0.16l0.02-0.16l0.02-0.16l0.02-0.16l0.02-0.16
	l0.02-0.16l0.02-0.15l0.02-0.15l0.02-0.15l0.02-0.15l0.02-0.15l0.01-0.15l0.02-0.15l0.01-0.15l0.01-0.15l0.01-0.15l0.01-0.15
	l0.01-0.15l0.01-0.15l0.01-0.15l0.01-0.15l0.01-0.15l0.01-0.15l0.01-0.14l0.01-0.14l0.01-0.14l0.01-0.14l0.01-0.14l0.01-0.14
	l0.01-0.14l0.01-0.14l0.01-0.14l0-0.14l0-0.14l0-0.14l0-0.14l0-0.14l0-0.14l0-0.13V3.42l0-0.13l0-0.14l6.25-0.06l0,0.15l0,0.16v0.32
	l0,0.16l0,0.16l0,0.16l0,0.16l0,0.16l-0.01,0.16L60.2,4.85L60.2,5.02l-0.01,0.16l-0.01,0.16l-0.01,0.16l-0.01,0.16l-0.01,0.17
	l-0.01,0.17l-0.01,0.17l-0.01,0.17l-0.01,0.17l-0.01,0.17l-0.01,0.17l-0.01,0.17l-0.01,0.17l-0.01,0.17l-0.01,0.17l-0.02,0.17
	l-0.02,0.17l-0.02,0.17l-0.02,0.17l-0.02,0.17l-0.02,0.17l-0.02,0.17L59.9,8.9l-0.02,0.17l-0.02,0.17l-0.02,0.17l-0.02,0.18
	l-0.02,0.18l-0.02,0.18l-0.02,0.18l-0.02,0.18l-0.03,0.18l-0.03,0.18l-0.03,0.18L59.62,11l-0.03,0.18l-0.03,0.18l-0.03,0.18
	l-0.03,0.18l-0.03,0.18l-0.03,0.18l-0.03,0.18l-0.03,0.18l-0.03,0.18l-0.03,0.18l-0.03,0.18l-0.03,0.18l-0.03,0.18l-0.03,0.18
	l-0.04,0.18l-0.03,0.18l-0.04,0.18l-0.04,0.18L59,14.45l-0.04,0.18l-0.04,0.19l-0.04,0.19l-0.04,0.19l-0.04,0.19l-0.04,0.19
	l-0.04,0.19l-0.04,0.19l-0.04,0.19l-0.04,0.19l-0.04,0.19l-0.04,0.19l-0.04,0.19l-0.04,0.19l-0.04,0.19l-0.05,0.19l-0.05,0.19
	l-0.05,0.19l-0.05,0.19l-0.05,0.19l-0.05,0.19l-0.05,0.19L58,18.78l-0.05,0.19l-0.05,0.19l-0.05,0.19l-0.05,0.19l-0.05,0.19
	l-0.05,0.19l-0.05,0.19l-0.05,0.19l-0.06,0.19l-0.05,0.19l-0.06,0.19l-0.06,0.19l-0.06,0.19l-0.06,0.19l-0.06,0.19l-0.06,0.2
	l-0.06,0.19l-0.06,0.2l-0.06,0.2l-0.06,0.2l-0.06,0.2l-0.06,0.2l-0.06,0.2l-0.06,0.2l-0.06,0.2l-0.06,0.2l-0.06,0.2l-0.06,0.2
	l-0.06,0.2l-0.06,0.2l-0.06,0.2l-0.07,0.2l-0.07,0.2L56,25.43l-0.07,0.2l-0.07,0.2l-0.07,0.2l-0.07,0.2l-0.07,0.2l-0.07,0.2
	l-0.07,0.2l-0.07,0.2l-0.07,0.2l-0.07,0.2l-0.07,0.2l-0.07,0.2l-0.07,0.2l-0.07,0.2l-0.07,0.2l-0.07,0.2l-0.08,0.2l-0.08,0.2
	l-0.08,0.2l-0.08,0.2l-0.08,0.2l-0.08,0.2l-0.08,0.2l-0.08,0.2l-0.08,0.2l-0.08,0.2l-0.08,0.2l-0.08,0.2l-0.08,0.2l-0.08,0.2
	l-0.08,0.2l-0.08,0.2l-0.08,0.2l-0.08,0.2l-0.08,0.2l-0.08,0.2l-0.08,0.2l-0.08,0.2l-0.08,0.2l-0.09,0.2l-0.09,0.2l-0.09,0.2
	l-0.09,0.2l-0.09,0.2l-0.09,0.21l-0.09,0.2l-0.09,0.21l-0.09,0.2l-0.09,0.21l-0.09,0.2l-0.09,0.21l-0.09,0.2l-0.09,0.21l-0.09,0.21
	l-0.09,0.2l-0.09,0.21l-0.09,0.21l-0.09,0.2l-0.09,0.21l-0.09,0.21l-0.1,0.21l-0.1,0.21l-0.1,0.2l-0.1,0.21l-0.1,0.21l-0.1,0.21
	l-0.1,0.2l-0.1,0.21l-0.1,0.21l-0.1,0.2l-0.1,0.21l-0.1,0.21l-0.1,0.2l-0.1,0.21l-0.1,0.2l-0.1,0.21l-0.1,0.2l-0.1,0.21l-0.1,0.2
	l-0.1,0.2l-0.1,0.21l-0.1,0.2l-0.1,0.2l-0.1,0.2l-0.1,0.2l-0.1,0.2l-0.11,0.2l-0.11,0.2l-0.11,0.2l-0.11,0.2l-0.11,0.2l-0.11,0.2
	l-0.11,0.2l-0.11,0.2l-0.11,0.2l-0.11,0.2l-0.11,0.2l-0.11,0.2l-0.11,0.2l-0.11,0.2l-0.11,0.2l-0.11,0.2l-0.11,0.2l-0.11,0.2
	l-0.11,0.2l-0.11,0.2l-0.11,0.2l-0.12,0.2l-0.11,0.2l-0.12,0.2l-0.12,0.2l-0.12,0.2l-0.12,0.2l-0.12,0.2l-0.12,0.2l-0.12,0.2
	l-0.12,0.2l-0.12,0.2l-0.12,0.2l-0.12,0.2l-0.12,0.2l-0.12,0.2l-0.12,0.2l-0.12,0.2l-0.12,0.2l-0.12,0.2l-0.12,0.2l-0.12,0.2
	l-0.12,0.2l-0.12,0.2l-0.12,0.2l-0.12,0.2L43.12,52.37L43.12,52.37z M88.42,87.85l-0.2-0.08l-0.21-0.08l-0.21-0.08l-0.21-0.08
	l-0.21-0.08l-0.21-0.08l-0.21-0.08l-0.21-0.08l-0.2-0.08l-0.2-0.09l-0.2-0.09l-0.2-0.09l-0.2-0.09l-0.2-0.09l-0.2-0.09l-0.2-0.09
	l-0.2-0.09l-0.2-0.09l-0.2-0.09l-0.2-0.09l-0.2-0.09l-0.2-0.09l-0.19-0.09l-0.19-0.09l-0.19-0.1l-0.19-0.1L83,85.47l-0.19-0.1
	l-0.19-0.1l-0.19-0.1l-0.19-0.1l-0.19-0.1l-0.19-0.1l-0.19-0.1l-0.19-0.1l-0.19-0.1l-0.19-0.1l-0.18-0.1l-0.18-0.1l-0.18-0.1
	l-0.18-0.1l-0.18-0.11l-0.18-0.11l-0.18-0.11l-0.18-0.11l-0.18-0.11l-0.18-0.11l-0.18-0.11l-0.18-0.11l-0.18-0.11l-0.18-0.11
	l-0.18-0.11l-0.18-0.11l-0.18-0.11l-0.17-0.11l-0.17-0.11l-0.17-0.11l-0.17-0.11l-0.17-0.11l-0.17-0.11l-0.17-0.11l-0.17-0.11
	l-0.17-0.11l-0.17-0.11l-0.17-0.12l-0.17-0.12l-0.17-0.12l-0.17-0.12l-0.17-0.12l-0.17-0.12l-0.16-0.12l-0.16-0.12l-0.16-0.12
	l-0.16-0.12l-0.16-0.12l-0.16-0.12l-0.16-0.12l-0.16-0.12l-0.16-0.12l-0.16-0.12l-0.16-0.12l-0.16-0.12l-0.16-0.12l-0.16-0.12
	l-0.15-0.12l-0.15-0.12l-0.15-0.12l-0.15-0.13l-0.15-0.12l-0.15-0.13l-0.15-0.13l-0.15-0.13L71.73,78l-0.15-0.13l-0.15-0.13
	l-0.15-0.13l-0.15-0.13l-0.15-0.13l-0.15-0.13L70.7,77.1l-0.15-0.13l-0.14-0.13l-0.14-0.13l-0.14-0.13l-0.14-0.13l-0.14-0.13
	l-0.14-0.13l-0.14-0.13l-0.14-0.13l-0.14-0.13l-0.14-0.13l-0.14-0.13l-0.14-0.13l-0.14-0.13l-0.14-0.13l-0.14-0.14l-0.14-0.14
	l-0.14-0.14l-0.14-0.14l-0.13-0.14l-0.13-0.14l-0.13-0.14l-0.13-0.14l-0.13-0.14l-0.13-0.14l-0.13-0.14l-0.13-0.14l-0.13-0.14
	l-0.13-0.14l-0.13-0.14l-0.13-0.14l-0.13-0.14l-0.13-0.14l-0.13-0.14l-0.13-0.14l-0.13-0.14l-0.12-0.14l-0.12-0.14l-0.12-0.14
	l-0.12-0.14l-0.12-0.14l-0.12-0.14l-0.12-0.14l-0.12-0.14l-0.12-0.14l-0.12-0.14l-0.12-0.14l-0.12-0.14l-0.12-0.14l-0.12-0.14
	L64,70.11l-0.12-0.14l-0.12-0.14l-0.12-0.14l-0.12-0.14l-0.11-0.14l-0.12-0.14l-0.11-0.14l-0.11-0.14l-0.11-0.14l-0.11-0.14
	l-0.11-0.14l-0.11-0.14l-0.11-0.14l-0.11-0.14l-0.11-0.14l-0.11-0.14l-0.11-0.14l-0.11-0.14l-0.11-0.14l-0.11-0.15l-0.11-0.14
	l-0.11-0.14l-0.1-0.14l-0.1-0.15l-0.1-0.14l-0.1-0.15l-0.1-0.15l-0.1-0.14l-0.1-0.15l-0.1-0.15l-0.1-0.15l-0.1-0.15l-0.1-0.15
	l-0.1-0.15l-0.1-0.15l-0.1-0.15l-0.1-0.15l-0.1-0.15l-0.1-0.15l-0.1-0.15l-0.1-0.15l-0.1-0.15l-0.1-0.15l-0.1-0.15l-0.1-0.15
	l-0.09-0.15l-0.09-0.15l-0.09-0.15L58.88,63l-0.09-0.15l-0.09-0.15l-0.09-0.15l-0.09-0.15l-0.09-0.15l-0.09-0.15l-0.09-0.15
	l-0.09-0.15l-0.18-0.29l-0.17-0.29l-0.17-0.29l-0.17-0.29l-0.17-0.29l-0.17-0.29l-0.17-0.29l-0.16-0.29l-0.16-0.29l-0.16-0.29
	l-0.16-0.29l-0.16-0.29l-0.15-0.29l-0.15-0.29l-0.15-0.29l-0.15-0.29l-0.15-0.29l-0.15-0.29l-0.14-0.29l-0.14-0.29l-0.14-0.29
	l-0.14-0.29l-0.14-0.29l-0.14-0.28l-0.13-0.28l-0.13-0.28l-0.13-0.28l-0.13-0.28l-0.13-0.28l-0.13-0.28l-0.12-0.28l-0.12-0.28
	l-0.12-0.28l-0.12-0.28l-0.12-0.28l-0.12-0.28l-0.12-0.27l-0.11-0.27l-0.11-0.27l-0.11-0.27l-0.11-0.27l-0.11-0.27l-0.11-0.27
	l-0.11-0.27l-0.1-0.27l-0.1-0.26l-0.1-0.26l-0.1-0.26l-0.1-0.26l-0.1-0.26l-0.1-0.26l-0.09-0.26l-0.09-0.26l-0.09-0.26l-0.09-0.25
	l-0.09-0.25l-0.09-0.25l-0.09-0.25l-0.08-0.25l-0.08-0.25l-0.08-0.24l-0.08-0.24l-0.08-0.24l-0.08-0.24l-0.08-0.24l-0.08-0.24
	l-0.07-0.24l-0.07-0.23l-0.07-0.23l-0.07-0.23l-0.07-0.23l-0.07-0.23l-0.07-0.22l-0.07-0.22l-0.06-0.22l-0.06-0.22l-0.06-0.22
	l-0.06-0.22l-0.06-0.21l-0.06-0.21l-0.06-0.21l-0.06-0.21l-0.06-0.21l-0.06-0.2l-0.05-0.2l-0.05-0.2l-0.05-0.2l-0.05-0.19
	l-0.05-0.19l-0.05-0.19l-0.05-0.19l-0.05-0.19l-0.04-0.18l-0.04-0.18l-0.04-0.18l-0.04-0.18l-0.04-0.17l-0.04-0.17l-0.08-0.33
	l-0.07-0.33l-0.07-0.32l-0.07-0.31l-0.06-0.3l-0.06-0.28l-0.06-0.27l-0.05-0.26l-0.05-0.25l-0.05-0.24l-0.04-0.23l-0.04-0.22
	l-0.04-0.21l-0.03-0.19l-0.03-0.18l-0.03-0.17l-0.03-0.16l-0.02-0.14l-0.02-0.13l-0.03-0.22l-0.02-0.16l-0.01-0.1l-0.01-0.04
	l6.19-0.83l0,0.02l0.01,0.07l0.02,0.12l0.03,0.18l0.02,0.1l0.02,0.12l0.02,0.13l0.03,0.15l0.03,0.16l0.03,0.17l0.03,0.18l0.03,0.19
	l0.04,0.21l0.04,0.22l0.04,0.23l0.05,0.24l0.05,0.25l0.05,0.26l0.06,0.27l0.06,0.28l0.06,0.29l0.07,0.3l0.07,0.31l0.04,0.16
	l0.04,0.16l0.04,0.16l0.04,0.17l0.04,0.17l0.04,0.17l0.04,0.17l0.04,0.17l0.04,0.18l0.04,0.18l0.05,0.18l0.05,0.18l0.05,0.19
	l0.05,0.19l0.05,0.19l0.05,0.19l0.05,0.19l0.05,0.19l0.06,0.2l0.06,0.2l0.06,0.2l0.06,0.2l0.06,0.2l0.06,0.21l0.06,0.21l0.06,0.21
	l0.06,0.21l0.06,0.21l0.07,0.21l0.07,0.22l0.07,0.22l0.07,0.22l0.07,0.22l0.07,0.22l0.07,0.22l0.07,0.22l0.08,0.23l0.08,0.23
	l0.08,0.23l0.08,0.23l0.08,0.23l0.08,0.23l0.08,0.23l0.08,0.24l0.08,0.24l0.09,0.24l0.09,0.24l0.09,0.24l0.09,0.24l0.09,0.24
	l0.09,0.24l0.09,0.25l0.1,0.25l0.1,0.25l0.1,0.25l0.1,0.25l0.1,0.25l0.1,0.25l0.1,0.25l0.1,0.25l0.11,0.25l0.11,0.25l0.11,0.26
	l0.11,0.26L59,49.84l0.11,0.26l0.11,0.26l0.12,0.26l0.12,0.26l0.12,0.26l0.12,0.26l0.12,0.26l0.12,0.26l0.12,0.26l0.13,0.26
	l0.13,0.26l0.13,0.26l0.13,0.26l0.13,0.26l0.13,0.27l0.13,0.27l0.14,0.27l0.14,0.27l0.14,0.27l0.14,0.27l0.14,0.27l0.15,0.27
	l0.15,0.27l0.15,0.27l0.15,0.27l0.15,0.27l0.15,0.27l0.15,0.27l0.15,0.27l0.16,0.27l0.16,0.27l0.16,0.27l0.16,0.27l0.08,0.13
	l0.08,0.13L63.75,59l0.08,0.13l0.08,0.13L64,59.4l0.08,0.13l0.08,0.13l0.08,0.13l0.08,0.13l0.09,0.13l0.09,0.13l0.09,0.13l0.09,0.13
	l0.09,0.13l0.09,0.13l0.09,0.13l0.09,0.13l0.09,0.13l0.09,0.13l0.09,0.13l0.09,0.13l0.09,0.13l0.09,0.13l0.09,0.13l0.09,0.13
	l0.09,0.13l0.09,0.13l0.09,0.13l0.09,0.13l0.09,0.13l0.1,0.13l0.1,0.13l0.1,0.13l0.1,0.13l0.1,0.13l0.1,0.13l0.1,0.13L67,63.8
	l0.1,0.13l0.1,0.13l0.1,0.13l0.1,0.13l0.1,0.13l0.1,0.13l0.1,0.13l0.1,0.13l0.1,0.13l0.1,0.13l0.1,0.13l0.1,0.13l0.1,0.13l0.1,0.13
	l0.11,0.13l0.1,0.13l0.11,0.13l0.11,0.13l0.11,0.13l0.11,0.13l0.11,0.13l0.11,0.13l0.11,0.13l0.11,0.13l0.11,0.13l0.11,0.13
	l0.11,0.13l0.11,0.13l0.11,0.13l0.11,0.13l0.11,0.13l0.11,0.13l0.11,0.13l0.11,0.13l0.11,0.13l0.11,0.12l0.11,0.12l0.11,0.12
	l0.12,0.12l0.12,0.12l0.12,0.12l0.12,0.12l0.12,0.12l0.12,0.12l0.12,0.12l0.12,0.12l0.12,0.12l0.12,0.12l0.12,0.12l0.12,0.12
	l0.12,0.12l0.12,0.12l0.12,0.12l0.12,0.12l0.12,0.12l0.12,0.12l0.12,0.12l0.12,0.12l0.13,0.12l0.12,0.12l0.13,0.12l0.13,0.12
	l0.13,0.12l0.13,0.12l0.13,0.12l0.13,0.12l0.13,0.12l0.13,0.12l0.13,0.12l0.13,0.12l0.13,0.12l0.13,0.12l0.13,0.11L75.51,73
	l0.13,0.11l0.13,0.11l0.14,0.11l0.14,0.11l0.14,0.11l0.14,0.11l0.14,0.11l0.14,0.11l0.14,0.11l0.14,0.11l0.14,0.11l0.14,0.11
	l0.14,0.11l0.14,0.11l0.14,0.11l0.14,0.11l0.14,0.11l0.14,0.11l0.14,0.11l0.14,0.11l0.14,0.11l0.14,0.11l0.14,0.11l0.14,0.11
	L79,75.76l0.15,0.11l0.15,0.11l0.15,0.1l0.15,0.1l0.15,0.1l0.15,0.1l0.15,0.1l0.15,0.1l0.15,0.1l0.15,0.1l0.15,0.1l0.15,0.1
	l0.15,0.1l0.15,0.1l0.15,0.1l0.15,0.1l0.16,0.1l0.15,0.1l0.16,0.1l0.16,0.1l0.16,0.1l0.16,0.1l0.16,0.1l0.16,0.1l0.16,0.09l0.16,0.1
	l0.16,0.09l0.16,0.09l0.16,0.09l0.16,0.09l0.16,0.09l0.16,0.09L84.13,79l0.17,0.09l0.17,0.09l0.17,0.09l0.17,0.09l0.17,0.09
	l0.17,0.09l0.17,0.09l0.17,0.09l0.17,0.09l0.17,0.09l0.17,0.09l0.17,0.08l0.17,0.08l0.17,0.08l0.17,0.08l0.17,0.08l0.18,0.08
	l0.18,0.08l0.18,0.08l0.18,0.08l0.18,0.08l0.18,0.08l0.18,0.08l0.18,0.08l0.18,0.08l0.18,0.08l0.18,0.08l0.18,0.08l0.18,0.08
	l0.18,0.08l0.18,0.07l0.18,0.07l0.18,0.07l0.18,0.07l0.18,0.07l0.19,0.07l0.19,0.07L88.42,87.85L88.42,87.85z M37.26,91.58
	l-3.23-5.35l0.28-0.17l0.27-0.17l0.27-0.17l0.27-0.17l0.27-0.17l0.27-0.17l0.27-0.17l0.27-0.17l0.27-0.17l0.26-0.17l0.26-0.17
	l0.26-0.17l0.26-0.17l0.26-0.17l0.26-0.17l0.26-0.17l0.26-0.17l0.26-0.17l0.25-0.17l0.25-0.17l0.25-0.17l0.25-0.17l0.25-0.17
	l0.25-0.17l0.25-0.17l0.25-0.17l0.24-0.17l0.24-0.17l0.24-0.17l0.24-0.17l0.24-0.17l0.24-0.17l0.24-0.17l0.24-0.17L43,80.33
	l0.24-0.17l0.24-0.17l0.23-0.17l0.23-0.17l0.23-0.17l0.23-0.17l0.23-0.17l0.23-0.17l0.23-0.17l0.22-0.17l0.22-0.17l0.22-0.17
	l0.22-0.17l0.22-0.17l0.22-0.17l0.22-0.17l0.22-0.17l0.22-0.17l0.22-0.17l0.22-0.17l0.21-0.17l0.21-0.17l0.21-0.17l0.21-0.17
	l0.21-0.17l0.21-0.17l0.21-0.17l0.21-0.17l0.21-0.17l0.2-0.17l0.2-0.17l0.2-0.17l0.2-0.17l0.2-0.17l0.2-0.17l0.2-0.17l0.2-0.17
	l0.2-0.17l0.19-0.17l0.19-0.17l0.19-0.17l0.19-0.17l0.19-0.17l0.19-0.17l0.19-0.17l0.19-0.17l0.19-0.17l0.19-0.17l0.19-0.17
	l0.19-0.17l0.18-0.17l0.18-0.17l0.18-0.17l0.18-0.17l0.18-0.17l0.18-0.17l0.18-0.17l0.18-0.17l0.18-0.17l0.17-0.17l0.17-0.17
	l0.17-0.17l0.17-0.17l0.17-0.17l0.17-0.17l0.17-0.17l0.17-0.17l0.17-0.17l0.17-0.17l0.17-0.17l0.17-0.17l0.16-0.17l0.16-0.17
	l0.16-0.17l0.16-0.17l0.16-0.17l0.16-0.17l0.16-0.17l0.16-0.17l0.16-0.17l0.16-0.17l0.15-0.17l0.15-0.17l0.15-0.17l0.15-0.17
	l0.15-0.17l0.15-0.17l0.15-0.17l0.15-0.17l0.15-0.17l0.15-0.17l0.15-0.17l0.15-0.17l0.14-0.17l0.14-0.17l0.14-0.17l0.14-0.17
	l0.14-0.17l0.14-0.17l0.14-0.17l0.14-0.17l0.14-0.17l0.14-0.17l0.13-0.17l0.14-0.17l0.13-0.17l0.13-0.17l0.13-0.17l0.13-0.17
	l0.13-0.17l0.13-0.17l0.13-0.17l0.13-0.17l0.13-0.17l0.13-0.17l0.13-0.17l0.12-0.17l0.12-0.17l0.12-0.17l0.12-0.17l0.12-0.17
	l0.12-0.17l0.12-0.17l0.12-0.17l0.12-0.17l0.12-0.17l0.12-0.17l0.12-0.17l0.11-0.17l0.12-0.17l0.11-0.17l0.11-0.16l0.11-0.17
	l0.11-0.16l0.11-0.16l0.11-0.16l0.11-0.16l0.11-0.16l0.11-0.16l0.11-0.16l0.11-0.16l0.11-0.16l0.11-0.16l0.11-0.16l0.1-0.16
	l0.1-0.16l0.1-0.16l0.1-0.16l0.1-0.16l0.1-0.16l0.1-0.16l0.1-0.16l0.1-0.16l0.1-0.16l0.1-0.16l0.1-0.16l0.1-0.16l0.09-0.16
	l0.09-0.16l0.09-0.16l0.09-0.16L68.59,53l0.09-0.16l0.09-0.16l0.09-0.16l0.09-0.16l0.09-0.16l0.09-0.16l0.09-0.16l0.09-0.16
	l0.09-0.16l0.08-0.16l0.08-0.16l0.08-0.16l0.08-0.16l0.08-0.15l0.08-0.16l0.08-0.15l0.08-0.15l0.08-0.15l0.08-0.15l0.08-0.15
	l0.08-0.15l0.08-0.15l0.08-0.15l0.08-0.15l0.08-0.15l0.07-0.15l0.07-0.15l0.07-0.15l0.07-0.15l0.07-0.15l0.07-0.15l0.07-0.15
	l0.07-0.15l0.07-0.15l0.07-0.15l0.07-0.15l0.07-0.15l0.07-0.15l0.07-0.15l0.07-0.15l0.07-0.15l0.07-0.15l0.07-0.15L72,46.25
	l0.06-0.15l0.06-0.15l0.06-0.15l0.06-0.15l0.06-0.15l0.06-0.15l0.06-0.15l0.06-0.15l0.06-0.14l0.06-0.15l0.06-0.14l0.06-0.14
	l0.06-0.14l0.06-0.14l0.06-0.14l0.06-0.14l0.06-0.14l0.06-0.14l0.05-0.14l0.05-0.14l0.05-0.14l0.05-0.14l0.05-0.14l0.05-0.14
	l0.05-0.14l0.1-0.28l0.1-0.28l0.1-0.28l0.1-0.27l0.09-0.27l0.09-0.27l0.09-0.27l0.09-0.27l0.08-0.27l0.08-0.26l0.08-0.26l0.08-0.26
	l0.08-0.26l0.08-0.26l0.07-0.26l0.07-0.26l0.07-0.25l0.07-0.25l0.07-0.25l0.07-0.25l0.06-0.25l0.06-0.24l0.06-0.24l0.06-0.24
	l0.06-0.24l0.06-0.24l0.06-0.24l0.05-0.24l0.05-0.23l0.05-0.23l0.05-0.23l0.05-0.23l0.05-0.22l0.04-0.22l0.04-0.22l0.04-0.22
	l0.04-0.22l0.04-0.22l0.04-0.21l0.04-0.21l0.04-0.21l0.03-0.21l0.03-0.21l0.03-0.2l0.03-0.2l0.03-0.2l0.03-0.2l0.03-0.19l0.03-0.19
	l0.03-0.19l0.02-0.19l0.02-0.19l0.02-0.18l0.02-0.18l0.02-0.18l0.02-0.18l0.02-0.18l0.02-0.17l0.02-0.17l0.02-0.17l0.01-0.17
	l0.01-0.16l0.01-0.16l0.01-0.16l0.01-0.16l0.01-0.16l0.01-0.15l0.01-0.15l0.01-0.15l0.01-0.15l0.01-0.14l0.01-0.14l0.01-0.14
	l0.01-0.14l0-0.13l0-0.13l0-0.13l0-0.12l0-0.12l0-0.12l0-0.12l0-0.11l0-0.11l0-0.11l0-0.11v-0.2l0-0.2l0-0.18l0-0.17l0-0.16l0-0.15
	l0-0.14l-0.01-0.13l0-0.11l-0.01-0.1l-0.01-0.09l0-0.08l0-0.07l0-0.05l0-0.04l0-0.05l0-0.01l6.22-0.64l0,0.04l0.01,0.11l0.01,0.08
	l0.01,0.09l0.01,0.1l0.01,0.11l0.01,0.13l0.01,0.14l0.01,0.15l0.01,0.17L83,24.28l0.01,0.19l0.01,0.2l0,0.21l0,0.22l0,0.23v0.25
	l0,0.13l0,0.13l0,0.13l0,0.14l0,0.14l0,0.14l0,0.14l0,0.15l0,0.15l0,0.15l-0.01,0.16l-0.01,0.16l-0.01,0.16l-0.01,0.16l-0.01,0.17
	l-0.01,0.17l-0.01,0.17l-0.01,0.17l-0.01,0.18l-0.01,0.18l-0.01,0.18l-0.01,0.18l-0.02,0.18l-0.02,0.19l-0.02,0.19l-0.02,0.19
	l-0.02,0.19l-0.02,0.2l-0.02,0.2l-0.02,0.2l-0.02,0.2l-0.02,0.21l-0.03,0.21l-0.03,0.21l-0.03,0.21l-0.03,0.22l-0.03,0.22
	l-0.03,0.22l-0.03,0.22l-0.03,0.22l-0.04,0.23l-0.04,0.23l-0.04,0.23l-0.04,0.23l-0.04,0.24l-0.04,0.24l-0.04,0.24l-0.04,0.24
	l-0.05,0.24l-0.05,0.25l-0.05,0.25l-0.05,0.25l-0.05,0.25l-0.05,0.25l-0.06,0.26l-0.06,0.26l-0.06,0.26l-0.06,0.26l-0.06,0.26
	l-0.06,0.26l-0.06,0.27l-0.07,0.27l-0.07,0.27l-0.07,0.27l-0.07,0.27l-0.07,0.28l-0.07,0.28l-0.08,0.28l-0.08,0.28l-0.08,0.28
	l-0.08,0.28l-0.08,0.29l-0.09,0.29l-0.09,0.29l-0.09,0.29l-0.09,0.29l-0.09,0.29l-0.1,0.3l-0.1,0.3l-0.1,0.3l-0.1,0.3l-0.1,0.3
	l-0.11,0.3l-0.11,0.3l-0.11,0.3l-0.06,0.16l-0.06,0.15l-0.06,0.15l-0.06,0.15l-0.06,0.15l-0.06,0.15l-0.06,0.16l-0.06,0.16
	l-0.06,0.16l-0.06,0.16l-0.06,0.16l-0.06,0.16l-0.06,0.16l-0.06,0.16l-0.07,0.16l-0.06,0.16l-0.07,0.16l-0.07,0.16l-0.07,0.16
	l-0.07,0.16l-0.07,0.16l-0.07,0.16l-0.07,0.16l-0.07,0.16l-0.07,0.16l-0.07,0.16l-0.07,0.16l-0.07,0.16l-0.07,0.16l-0.07,0.16
	l-0.07,0.16l-0.07,0.16l-0.07,0.16l-0.07,0.16L77,50.38l-0.08,0.17l-0.08,0.17l-0.08,0.17l-0.08,0.17l-0.08,0.17l-0.08,0.17
	l-0.08,0.17l-0.08,0.17l-0.08,0.17l-0.08,0.17l-0.08,0.17l-0.08,0.17l-0.08,0.17l-0.08,0.17l-0.09,0.17l-0.09,0.17l-0.09,0.17
	l-0.09,0.17l-0.09,0.17l-0.09,0.17l-0.09,0.17l-0.09,0.17l-0.09,0.17l-0.09,0.17l-0.09,0.17l-0.09,0.17l-0.1,0.17l-0.1,0.17
	l-0.1,0.17l-0.1,0.17l-0.1,0.17l-0.1,0.17l-0.1,0.17l-0.1,0.17l-0.1,0.17l-0.1,0.17l-0.1,0.17l-0.1,0.17l-0.1,0.17l-0.1,0.17
	l-0.1,0.17l-0.11,0.17l-0.11,0.17l-0.11,0.17l-0.11,0.17l-0.11,0.17l-0.11,0.17l-0.11,0.18l-0.11,0.17l-0.11,0.18l-0.11,0.18
	l-0.11,0.18l-0.11,0.18l-0.11,0.18l-0.11,0.18l-0.12,0.18l-0.12,0.18l-0.12,0.18l-0.12,0.18l-0.12,0.18l-0.12,0.18l-0.12,0.18
	l-0.12,0.18l-0.12,0.18l-0.12,0.18l-0.12,0.18l-0.12,0.18l-0.12,0.18l-0.13,0.18l-0.13,0.18l-0.13,0.18l-0.13,0.18l-0.13,0.18
	l-0.13,0.18l-0.13,0.18l-0.13,0.18l-0.13,0.18l-0.13,0.18l-0.13,0.18l-0.14,0.18l-0.14,0.18l-0.14,0.18l-0.14,0.18l-0.14,0.18
	l-0.14,0.18l-0.14,0.18l-0.14,0.18l-0.14,0.18l-0.14,0.18l-0.14,0.18l-0.14,0.18l-0.14,0.18l-0.15,0.18l-0.15,0.18l-0.15,0.18
	l-0.15,0.18l-0.15,0.18l-0.15,0.18l-0.15,0.18l-0.15,0.18l-0.15,0.18l-0.15,0.18l-0.15,0.18l-0.15,0.18l-0.16,0.18l-0.16,0.18
	l-0.16,0.18l-0.16,0.18l-0.16,0.18l-0.16,0.18L64,69.9l-0.16,0.18l-0.16,0.18l-0.17,0.18l-0.17,0.18l-0.17,0.18l-0.17,0.18
	l-0.17,0.18l-0.17,0.18l-0.17,0.18l-0.17,0.18l-0.17,0.18l-0.17,0.18l-0.17,0.18l-0.18,0.18l-0.18,0.18l-0.18,0.18l-0.18,0.18
	l-0.18,0.18l-0.18,0.18l-0.18,0.18l-0.18,0.18l-0.18,0.18l-0.18,0.18l-0.19,0.18l-0.19,0.18l-0.19,0.18l-0.19,0.18l-0.19,0.18
	l-0.19,0.18l-0.19,0.18l-0.19,0.18l-0.19,0.18l-0.19,0.18l-0.19,0.18l-0.2,0.18l-0.2,0.18l-0.2,0.18l-0.2,0.18l-0.2,0.18l-0.2,0.18
	l-0.2,0.18l-0.2,0.18l-0.2,0.18l-0.21,0.18l-0.21,0.18l-0.21,0.18l-0.21,0.18l-0.21,0.18l-0.21,0.18l-0.21,0.18l-0.21,0.18
	l-0.21,0.18l-0.21,0.18l-0.22,0.18l-0.22,0.18l-0.22,0.18l-0.22,0.18l-0.22,0.18l-0.22,0.18l-0.22,0.18l-0.22,0.18l-0.22,0.18
	l-0.22,0.18l-0.23,0.18l-0.23,0.18l-0.23,0.18l-0.23,0.18l-0.23,0.18l-0.23,0.18l-0.23,0.18l-0.23,0.18l-0.23,0.18l-0.24,0.18
	l-0.24,0.18l-0.24,0.18l-0.24,0.18l-0.24,0.18l-0.24,0.18l-0.24,0.18l-0.24,0.18l-0.24,0.18l-0.24,0.18l-0.25,0.18l-0.25,0.18
	l-0.25,0.18l-0.25,0.18l-0.25,0.18l-0.25,0.18l-0.25,0.18l-0.25,0.18l-0.25,0.18l-0.26,0.18l-0.26,0.18L44.37,87l-0.26,0.18
	l-0.26,0.18l-0.26,0.18l-0.26,0.18l-0.26,0.18l-0.26,0.18l-0.27,0.18l-0.27,0.18L42,88.6l-0.27,0.18l-0.27,0.18l-0.27,0.18
	l-0.27,0.18l-0.27,0.18l-0.28,0.18l-0.28,0.18l-0.28,0.18l-0.28,0.18l-0.28,0.18l-0.28,0.18l-0.28,0.18l-0.28,0.17l-0.28,0.18
	l-0.28,0.17l-0.29,0.17L37.26,91.58L37.26,91.58z M105.78,10.09h77.42v6.25h-77.42L105.78,10.09z M112.03,22.56h64.25v6.25h-64.25
	V22.56z M100.35,35.32H190v6.25h-89.65V35.32z M101.79,52.98h85.42v6.25h-85.42L101.79,52.98z M115.89,91.9V64.38h56.96V91.9h-6.25
	V70.63h-44.46V91.9H115.89z M119.01,82.08h49.19v6.25h-49.19V82.08z M126.46,57.69l-6.18-10.49l5.39-3.17l6.18,10.49
	C131.85,54.52,126.46,57.69,126.46,57.69z M162.39,57.46l-5.63-2.72l5.07-10.49l5.63,2.72L162.39,57.46z M130.3,15.12l-8.7-11.31
	L126.56,0l8.7,11.31L130.3,15.12z M157.1,14.96l-5.19-3.49l7.61-11.31l5.19,3.49L157.1,14.96z M141.24,13.21h6.25V56.1h-6.25V13.21z
	"/>
	<path d="M6.09,114.57l15.7-16.09h8.12l-18.23,18.26l18.33,22.07h-8.15L7.34,120.86l-1.25,1.25v16.69H0V98.48h6.09V114.57z"/>
	<path d="M59.13,129.01H41.87l-4.49,9.79h-6.56l19.95-42.86l19.25,42.86h-6.66L59.13,129.01z M56.65,123.29l-5.98-13.71l-6.27,13.71
		H56.65z"/>
	<path d="M81.14,98.48v40.32h-6.09V98.48H81.14z"/>
	<path d="M97.81,133.09h19.35v5.72H87.8l19.8-34.6H91.04v-5.72h26.56L97.81,133.09z"/>
	<path d="M146.52,104.2h-16.17v9.69h15.7v5.72h-15.7v13.48h16.17v5.72h-22.25V98.48h22.25V104.2z"/>
	<path d="M154.51,138.81V95.74l29.41,30.77V98.48H190v42.78l-29.41-30.69v28.23H154.51z"/>
</svg>
