---
to: "<%= type==='primary' ? `${h.src()}/${h.changeCase.lower(name)}/images/svg/arrow-double.svg` : null %>"
---
<svg xmlns="http://www.w3.org/2000/svg" width="129px" height="129px" viewBox="0 0 129 129">
	<path d="M120.4,53c-1.6-1.6-4.2-1.6-5.8,0l-51,51.1L12.5,53c-1.6-1.6-4.2-1.6-5.8,0s-1.6,4.2,0,5.8l53.9,53.9
	c0.8,0.8,1.8,1.2,2.9,1.2c1,0,2.1-0.4,2.9-1.2l53.9-53.9C122,57.2,122,54.6,120.4,53z"/>
	<path d="M120.4,18.3c-1.6-1.6-4.2-1.6-5.8,0l-51,51.1L12.5,18.3c-1.6-1.6-4.2-1.6-5.8,0s-1.6,4.2,0,5.8L60.6,78
	c0.8,0.8,1.8,1.2,2.9,1.2c1,0,2.1-0.4,2.9-1.2l53.9-53.9C122,22.5,122,19.9,120.4,18.3z"/>
</svg>
