---
to: "<%= type==='primary' ? `${h.src()}/${h.changeCase.lower(name)}/images/svg/smile-straight.svg` : null %>"
---
<svg xmlns="http://www.w3.org/2000/svg" width="106.059px" height="106.059px" viewBox="0 0 106.059 106.059">
	<path d="M90.545,90.542c20.686-20.685,20.684-54.341,0.002-75.023c-20.69-20.69-54.349-20.69-75.033-0.006
		C-5.173,36.199-5.171,69.857,15.516,90.547C36.198,111.23,69.856,111.23,90.545,90.542z M21.301,21.299
		C38.793,3.807,67.261,3.805,84.759,21.302c17.494,17.493,17.492,45.962-0.002,63.456s-45.963,17.495-63.456,0.003
		C3.803,67.262,3.805,38.793,21.301,21.299z M22.769,39.804c0-1.738,1.408-3.146,3.146-3.146l13.373-0.002
		c0.029,0,0.055,0.008,0.082,0.009c1.609-0.018,3.225,0.581,4.453,1.81c2.422,2.422,2.422,6.35,0.002,8.77
		c-2.42,2.421-6.348,2.421-8.771-0.002c-1.186-1.187-1.783-2.735-1.805-4.291h-7.334C24.176,42.951,22.769,41.543,22.769,39.804z
		 M63.437,47.338c-2.42-2.42-2.42-6.348,0.002-8.77c1.229-1.229,2.842-1.827,4.453-1.81c0.027-0.001,0.053-0.009,0.082-0.009
		l13.373,0.002c1.738,0,3.146,1.408,3.146,3.146c0,1.738-1.407,3.146-3.146,3.146h-7.334c-0.023,1.556-0.619,3.104-1.805,4.291
		C69.784,49.758,65.856,49.758,63.437,47.338z M33.901,67.551h38.26c1.921,0,3.479,1.558,3.479,3.479s-1.559,3.479-3.479,3.479
		h-38.26c-1.92,0-3.479-1.559-3.479-3.479S31.981,67.551,33.901,67.551z"/>
</svg>
