<svg xmlns="http://www.w3.org/2000/svg" width="166.1px" height="24.9px" viewBox="0 0 166.1 24.9">
  <path d="M18.3,24.9l-9.4-13L4.2,16v8.8H0V0h4.2v11L16.4,0h5.4l-9.6,9.1l11.3,15.7H18.3z"/>
  <path d="M51.7,24.9l-3.2-5.8H33.4l-3.1,5.8h-4.8L38.9,0h4.2l13.5,24.9H51.7z M41,4.8l-5.4,10.1h10.8L41,4.8z"/>
  <path d="M64.8,24.9V0H69v24.9H64.8z"/>
  <path d="M79.1,24.9l-2-3.3L94.7,4.2H78.6V0H99l2.3,3.3L83.6,20.6h17.8v4.3H79.1z"/>
  <path d="M109.4,24.9V0h21.9v4.2h-17.7v5.7h9.7v4.2h-9.7v6.5h18.1v4.2H109.4z"/>
  <path d="M161.9,24.9L146.3,6.4v18.5h-4.2V0h4.3l15.5,18.4V0h4.2v24.9H161.9z"/>
</svg>
